<svg xmlns="http://www.w3.org/2000/svg" viewBox="0 0 560 430"><rect width="560" height="430" rx="18" fill="#f8fbfd"/><g fill="none" stroke="#d2c8e8" stroke-width="3" transform="rotate(-28 280 215)"><ellipse cx="280" cy="215" rx="250" ry="83"/><ellipse cx="280" cy="215" rx="195" ry="59"/><ellipse cx="280" cy="215" rx="140" ry="38"/><ellipse cx="280" cy="215" rx="82" ry="18"/></g><polyline points="75,340 160,222 218,232 280,188 339,171 394,143 446,122 487,105" fill="none" stroke="#ef5b3f" stroke-width="7" stroke-linecap="round" stroke-linejoin="round"/><g fill="#ef5b3f"><circle cx="75" cy="340" r="9"/><circle cx="160" cy="222" r="6"/><circle cx="218" cy="232" r="6"/><circle cx="280" cy="188" r="6"/><circle cx="339" cy="171" r="6"/><circle cx="394" cy="143" r="6"/><circle cx="446" cy="122" r="6"/><circle cx="487" cy="105" r="8"/></g></svg>
